{"title":"Spartacus - Gods of the Arena EP05 (MKV NL+ENG Subs) Hornigold T","uid":6191767,"size":1564419967,"categoryP":"video","categoryS":"tv_shows","magnet":"?xt=urn:btih:d630e7b4f8c6b7559cb3b9920f41d4454de7c6bf&amp;dn=Spartacus+-+Gods+of+the+Arena+EP05+%28MKV+NL%2BENG+Subs%29+Hornigold+T&amp;tr=udp%3A%2F%2Ftracker.openbittorrent.com%3A80&amp;tr=udp%3A%2F%2Fopen.demonii.com%3A1337&amp;tr=udp%3A%2F%2Ftracker.coppersurfer.tk%3A6969&amp;tr=udp%3A%2F%2Fexodus.desync.com%3A6969","seeders":1,"leechers":0,"uploader":"Hornigold","files":-1,"time":1298315048,"description":"Spartacus - Gods of the Arena EP05 - Reckoning\n\nVerenigde Staten ~ 50 minuten per aflevering ~ gecreÃƒÂ«erd door Steven S. DeKnight ~ met Dustin Clare, Lucy Lawless, John Hannah, Peter Mensah, Manu Bennett e.a.\n\nVoordat Spartacus zijn eerste opponent neerstak, waren er vele gladiatoren die door de poorten het zand betraden. 'Spartacus: Gods of the Arena' vertelt het verhaal van de originele Kampioen van het Huis van Batiatus. Gannicus in een meer meedogenloze tijd voor Spartacus' aankomst waar eer net zijn weg vond naar de Arena.\n\nBestandsformaat: .MKV (Matroska bestand, af te spelen op bijvoorbeeld blu-ray speler of gewoon de pc)\nBestandsgrootte: 1,45 GB\nTaal: Engels 5.1\nOndertitelingen: Nederlands en Engels - Nederlands custom door RenHÃƒÂ¶ek\nCategorie : Serie\nDVD5 of DVD9 : NVT\nBron : HDTV\nMenu: Nee\nExtra's: Nee\nGenre : Actie\nWeblink : http://www.imdb.com/title/tt1758429/\n\n~~~~~~~~~~~~~~~~~~~~~~~~\nUSA ~ 50 minutes per episode ~ created by Steven S. DeKnight ~ witht Dustin Clare, Lucy Lawless, John Hannah, Peter Mensah, Manu Bennett and others.\n\nBefore Spartacus struck down his first opponent in the arena, there were many gladiators who passed though the gates onto the sand.'Spartacus: Gods of the Arena' tells the story of the original Champion of the House of Batiatus: Gannicus in a more ruthless time before Spartacus' arrival where honor was just finding it's way into the arena.\n\nFile format: .MKV (Matroska file, playable with for example a blu-ray player or on your pc)\nFile size: 1,45 GB\nLanguage: English 5.1\nSubtitles: Dutch and English - Dutch custom by RenHÃƒÂ¶ek\nCategory : Serie\nDVD5 or DVD9 : NONE\nSource : HDTV\nMenu: No\nExtras: No\nGenre : Action\nWeblink : http://www.imdb.com/title/tt1758429/\n\n~~~~~~~~~~~~~~~~~~~~~~\nVideo and audio informatie:\n~~~~~~~~~~~~~~~~~~~~~~\nID                               : 1\nFormat                           : AVC\nFormat/Info                      : Advanced Video Codec\nFormat profile                   : &lt;a class=&quot;__cf_email__&quot; href=&quot;/cdn-cgi/l/email-protection&quot; data-cfemail=&quot;80c8e9e7e8c0ccb3aeb1&quot;&gt;[email&amp;#160;protected]&lt;/a&gt;&lt;script cf-hash='f9e31' type=&quot;text/javascript&quot;&gt;\n/* &lt;![CDATA[ */!function(){try{var t=&quot;currentScript&quot;in document?document.currentScript:function(){for(var t=document.getElementsByTagName(&quot;script&quot;),e=t.length;e--;)if(t[e].getAttribute(&quot;cf-hash&quot;))return t[e]}();if(t&amp;&amp;t.previousSibling){var e,r,n,i,c=t.previousSibling,a=c.getAttribute(&quot;data-cfemail&quot;);if(a){for(e=&quot;&quot;,r=parseInt(a.substr(0,2),16),n=2;a.length-n;n+=2)i=parseInt(a.substr(n,2),16)^r,e+=String.fromCharCode(i);e=document.createTextNode(e),c.parentNode.replaceChild(e,c)}}}catch(u){}}();/* ]]&gt; */&lt;/script&gt;\nFormat settings, CABAC           : Yes\nFormat settings, ReFrames        : 4 frames\nFormat settings, GOP             : M=4, N=10\nMuxing mode                      : Container profile=&lt;a class=&quot;__cf_email__&quot; href=&quot;/cdn-cgi/l/email-protection&quot; data-cfemail=&quot;df8ab1b4b1b0a8b19fecf1ee&quot;&gt;[email&amp;#160;protected]&lt;/a&gt;&lt;script cf-hash='f9e31' type=&quot;text/javascript&quot;&gt;\n/* &lt;![CDATA[ */!function(){try{var t=&quot;currentScript&quot;in document?document.currentScript:function(){for(var t=document.getElementsByTagName(&quot;script&quot;),e=t.length;e--;)if(t[e].getAttribute(&quot;cf-hash&quot;))return t[e]}();if(t&amp;&amp;t.previousSibling){var e,r,n,i,c=t.previousSibling,a=c.getAttribute(&quot;data-cfemail&quot;);if(a){for(e=&quot;&quot;,r=parseInt(a.substr(0,2),16),n=2;a.length-n;n+=2)i=parseInt(a.substr(n,2),16)^r,e+=String.fromCharCode(i);e=document.createTextNode(e),c.parentNode.replaceChild(e,c)}}}catch(u){}}();/* ]]&gt; */&lt;/script&gt;\nCodec ID                         : V_MPEG4/ISO/AVC\nDuration                         : 56mn 39s\nBit rate                         : 3 296 Kbps\nWidth                            : 1 280 pixels\nHeight                           : 720 pixels\nDisplay aspect ratio             : 16:9\nFrame rate                       : 23.976 fps\nColor space                      : YUV\nChroma subsampling               : 4:2:0\nBit depth                        : 8 bits\nScan type                        : Progressive\nBits/(Pixel*Frame)               : 0.149\nStream size                      : 1.28 GiB (88%)\nWriting library                  : x264 core 104 r1703 cd21d05\nEncoding settings                : cabac=1 / ref=3 / deblock=1:0:0 / analyse=0x3:0x113 / me=umh / subme=6 / psy=1 / psy_rd=1.00:0.00 / mixed_ref=0 / me_range=16 / chroma_me=1 / trellis=1 / 8x8dct=1 / cqm=0 / deadzone=21,11 / fast_pskip=1 / chroma_qp_offset=-2 / threads=20 / sliced_threads=0 / nr=0 / decimate=1 / interlaced=0 / constrained_intra=0 / bframes=3 / b_pyramid=2 / b_adapt=1 / b_bias=0 / direct=1 / weightb=1 / open_gop=0 / weightp=2 / keyint=250 / keyint_min=23 / scenecut=40 / intra_refresh=0 / rc=2pass / mbtree=0 / bitrate=3296 / ratetol=1.0 / qcomp=0.60 / qpmin=10 / qpmax=51 / qpstep=4 / cplxblur=20.0 / qblur=0.5 / ip_ratio=1.40 / pb_ratio=1.30 / aq=1:1.00\nLanguage                         : English\n\nAudio\nID                               : 2\nFormat                           : AC-3\nFormat/Info                      : Audio Coding 3\nMode extension                   : CM (complete main)\nCodec ID                         : A_AC3\nDuration                         : 56mn 39s\nBit rate mode                    : Constant\nBit rate                         : 384 Kbps\nChannel(s)                       : 6 channels\nChannel positions                : Front: L C R, Side: L R, LFE\nSampling rate                    : 48.0 KHz\nBit depth                        : 16 bits\nStream size                      : 156 MiB (10%)\n\n~~~~~~~~~~~~~~~\nHornigold TBS\n~~~~~~~~~~~~~~~","torrent":{"xt":"urn:btih:d630e7b4f8c6b7559cb3b9920f41d4454de7c6bf","amp;dn":"Spartacus+-+Gods+of+the+Arena+EP05+%28MKV+NL%2BENG+Subs%29+Hornigold+T","amp;tr":["udp%3A%2F%2Ftracker.openbittorrent.com%3A80","udp%3A%2F%2Fopen.demonii.com%3A1337","udp%3A%2F%2Ftracker.coppersurfer.tk%3A6969","udp%3A%2F%2Fexodus.desync.com%3A6969"],"infoHash":"d630e7b4f8c6b7559cb3b9920f41d4454de7c6bf","infoHashBuffer":{"type":"Buffer","data":[214,48,231,180,248,198,183,85,156,179,185,146,15,65,212,69,77,231,198,191]},"announce":[],"urlList":[]}}